<?xml version="1.0" encoding="UTF-8" standalone="no"?>
<!-- Created with Inkscape (http://www.inkscape.org/) -->

<svg
   xmlns:dc="http://purl.org/dc/elements/1.1/"
   xmlns:cc="http://creativecommons.org/ns#"
   xmlns:rdf="http://www.w3.org/1999/02/22-rdf-syntax-ns#"
   xmlns:svg="http://www.w3.org/2000/svg"
   xmlns="http://www.w3.org/2000/svg"
   xmlns:sodipodi="http://sodipodi.sourceforge.net/DTD/sodipodi-0.dtd"
   xmlns:inkscape="http://www.inkscape.org/namespaces/inkscape"
   version="1.1"
   id="svg2"
   xml:space="preserve"
   width="35.927067"
   height="45.453068"
   viewBox="0 0 35.927067 45.453068"
   sodipodi:docname="htmlacademy.svg"
   inkscape:version="0.92.2 (5c3e80d, 2017-08-06)"><metadata
     id="metadata8"><rdf:RDF><cc:Work
         rdf:about=""><dc:format>image/svg+xml</dc:format><dc:type
           rdf:resource="http://purl.org/dc/dcmitype/StillImage" /><dc:title></dc:title></cc:Work></rdf:RDF></metadata><defs
     id="defs6" /><sodipodi:namedview
     pagecolor="#ffffff"
     bordercolor="#666666"
     borderopacity="1"
     objecttolerance="10"
     gridtolerance="10"
     guidetolerance="10"
     inkscape:pageopacity="0"
     inkscape:pageshadow="2"
     inkscape:window-width="640"
     inkscape:window-height="480"
     id="namedview4"
     showgrid="false"
     inkscape:zoom="5.1921688"
     inkscape:cx="17.963533"
     inkscape:cy="22.726534"
     inkscape:window-x="0"
     inkscape:window-y="0"
     inkscape:window-maximized="0"
     inkscape:current-layer="g10" /><g
     id="g10"
     inkscape:groupmode="layer"
     inkscape:label="Vector Smart Object3"
     transform="matrix(1.3333333,0,0,-1.3333333,0,45.453067)"><g
       id="g12"
       transform="translate(13.473,34.0902)"><path
         d="m 0,0 -13.473,-1.412 v -24.662 l 13.474,-8.016 13.43,7.99 0.041,0.024 V -1.412 L 0.147,-0.017 Z m -11.548,-3.147 11.549,1.212 11.547,-1.212 v -8.98 H 11.546 L 0.022,-5.334 0.021,-5.23 -0.066,-5.28 -0.154,-5.224 v -0.109 l -11.394,-6.785 z m 0.109,-10.475 11.371,6.834 11.518,-6.712 -4.479,-2.641 -7.093,4.221 -0.014,-1.414 5.904,-3.513 -0.86,-0.508 -5.03,2.993 -0.014,-1.415 3.827,-2.275 -0.782,-0.524 -3.031,1.787 -0.014,-1.413 1.853,-1.09 -1.8,-1.081 z m 19.582,-8.549 -0.011,5.177 3.416,2.037 V -24.979 L 0,-31.85 l -11.548,6.871 v 9.852 l 11.411,-6.792 0.016,-1.044 -7.942,4.728 -0.015,-1.416 7.979,-4.795 0.019,-1.076 -7.974,4.74 -0.013,-1.414 8.021,-4.822 0.047,-0.024 z"
         style="fill:#000000;fill-opacity:1;fill-rule:nonzero;stroke:none"
         id="path14"
         inkscape:connector-curvature="0" /></g></g></svg>