<?xml version="1.0" encoding="UTF-8" standalone="no"?>
<!-- Created with Inkscape (http://www.inkscape.org/) -->

<svg
   xmlns:dc="http://purl.org/dc/elements/1.1/"
   xmlns:cc="http://creativecommons.org/ns#"
   xmlns:rdf="http://www.w3.org/1999/02/22-rdf-syntax-ns#"
   xmlns:svg="http://www.w3.org/2000/svg"
   xmlns="http://www.w3.org/2000/svg"
   xmlns:sodipodi="http://sodipodi.sourceforge.net/DTD/sodipodi-0.dtd"
   xmlns:inkscape="http://www.inkscape.org/namespaces/inkscape"
   version="1.1"
   id="svg2"
   xml:space="preserve"
   width="101.55467"
   height="91.945335"
   viewBox="0 0 101.55467 91.945335"
   sodipodi:docname="icon-burger.svg"
   inkscape:version="0.92.2 (5c3e80d, 2017-08-06)"><metadata
     id="metadata8"><rdf:RDF><cc:Work
         rdf:about=""><dc:format>image/svg+xml</dc:format><dc:type
           rdf:resource="http://purl.org/dc/dcmitype/StillImage" /><dc:title /></cc:Work></rdf:RDF></metadata><defs
     id="defs6"><clipPath
       clipPathUnits="userSpaceOnUse"
       id="clipPath18"><path
         d="M 0,68.959 H 76.166 V 0 H 0 Z"
         id="path16"
         inkscape:connector-curvature="0" /></clipPath></defs><sodipodi:namedview
     pagecolor="#ffffff"
     bordercolor="#666666"
     borderopacity="1"
     objecttolerance="10"
     gridtolerance="10"
     guidetolerance="10"
     inkscape:pageopacity="0"
     inkscape:pageshadow="2"
     inkscape:window-width="1920"
     inkscape:window-height="1017"
     id="namedview4"
     showgrid="false"
     inkscape:zoom="2.5667425"
     inkscape:cx="50.777336"
     inkscape:cy="45.972668"
     inkscape:window-x="-8"
     inkscape:window-y="-8"
     inkscape:window-maximized="1"
     inkscape:current-layer="g10" /><g
     id="g10"
     inkscape:groupmode="layer"
     inkscape:label="Vector Smart Object7"
     transform="matrix(1.3333333,0,0,-1.3333333,0,91.945333)"><g
       id="g12"
       style="fill:#81b3d2;fill-opacity:1"><g
         id="g14"
         clip-path="url(#clipPath18)"
         style="fill:#81b3d2;fill-opacity:1"><g
           id="g20"
           transform="translate(73.166,15.2109)"
           style="fill:#81b3d2;fill-opacity:1"><path
             d="m 0,0 c 0,-0.679 -0.573,-1.252 -1.252,-1.252 h -67.662 c -0.679,0 -1.252,0.573 -1.252,1.252 v 3.454 c 0,0.679 0.573,1.252 1.252,1.252 H -1.252 C -0.573,4.706 0,4.133 0,3.454 Z m -5.208,-5.289 c 0,-3.815 -3.104,-6.922 -6.921,-6.922 h -45.908 c -3.816,0 -6.921,3.105 -6.921,6.922 v 1.037 h 59.75 z m 3.956,12.995 h -67.662 c -2.338,0 -4.252,-1.913 -4.252,-4.252 V 0 c 0,-2.338 1.914,-4.252 4.252,-4.252 h 0.956 v -1.037 c 0,-5.457 4.464,-9.922 9.921,-9.922 h 45.908 c 5.456,0 9.921,4.465 9.921,9.922 v 1.037 h 0.956 C 1.087,-4.252 3,-2.338 3,0 V 3.454 C 3,5.793 1.087,7.706 -1.252,7.706"
             style="fill:#81b3d2;fill-opacity:1;fill-rule:nonzero;stroke:none"
             id="path22"
             inkscape:connector-curvature="0" /></g><g
           id="g24"
           transform="translate(16.1621,31.1025)"
           style="fill:#81b3d2;fill-opacity:1"><path
             d="m 0,0 5.473,-4 5.477,4 5.479,-4 5.478,4 5.479,-4 5.478,4 5.479,-4 5.48,4 5.489,-4 6.368,4.645 -1.768,2.423 -4.6,-3.355 -5.489,3.999 -5.48,-3.999 -5.479,4 -5.478,-4 -5.479,4 -5.478,-4 -5.479,4 -5.476,-4 -5.473,4.001 -5.477,-4.001 -4.593,3.354 -1.77,-2.421 L -5.476,-4 Z"
             style="fill:#81b3d2;fill-opacity:1;fill-rule:nonzero;stroke:none"
             id="path26"
             inkscape:connector-curvature="0" /></g><g
           id="g28"
           transform="translate(38.083,65.959)"
           style="fill:#81b3d2;fill-opacity:1"><path
             d="M 0,0 C 16.031,0 29.15,-11.154 29.842,-25.094 H -29.842 C -29.15,-11.154 -16.032,0 0,0 m 32.805,-28.094 c 0.041,0.61 0.054,2.616 0.037,3 C 32.159,-9.476 17.721,3 0,3 -17.72,3 -32.159,-9.476 -32.842,-25.094 c -0.017,-0.384 -0.004,-2.389 0.039,-3 z"
             style="fill:#81b3d2;fill-opacity:1;fill-rule:nonzero;stroke:none"
             id="path30"
             inkscape:connector-curvature="0" /></g><g
           id="g32"
           transform="translate(38.083,55.917)"
           style="fill:#81b3d2;fill-opacity:1"><path
             d="m 0,0 c 1.104,0 2,-0.896 2,-2 0,-1.104 -0.896,-2 -2,-2 -1.104,0 -2,0.896 -2,2 0,1.104 0.896,2 2,2"
             style="fill:#81b3d2;fill-opacity:1;fill-rule:nonzero;stroke:none"
             id="path34"
             inkscape:connector-curvature="0" /></g><g
           id="g36"
           transform="translate(30.083,60.876)"
           style="fill:#81b3d2;fill-opacity:1"><path
             d="m 0,0 c 1.104,0 2,-0.896 2,-2 0,-1.104 -0.896,-2 -2,-2 -1.104,0 -2,0.896 -2,2 0,1.104 0.896,2 2,2"
             style="fill:#81b3d2;fill-opacity:1;fill-rule:nonzero;stroke:none"
             id="path38"
             inkscape:connector-curvature="0" /></g><g
           id="g40"
           transform="translate(46.083,60.876)"
           style="fill:#81b3d2;fill-opacity:1"><path
             d="m 0,0 c 1.104,0 2,-0.896 2,-2 0,-1.104 -0.896,-2 -2,-2 -1.104,0 -2,0.896 -2,2 0,1.104 0.896,2 2,2"
             style="fill:#81b3d2;fill-opacity:1;fill-rule:nonzero;stroke:none"
             id="path42"
             inkscape:connector-curvature="0" /></g></g></g></g></svg>