<?xml version="1.0" encoding="UTF-8" standalone="no"?>
<!-- Created with Inkscape (http://www.inkscape.org/) -->

<svg
   xmlns:dc="http://purl.org/dc/elements/1.1/"
   xmlns:cc="http://creativecommons.org/ns#"
   xmlns:rdf="http://www.w3.org/1999/02/22-rdf-syntax-ns#"
   xmlns:svg="http://www.w3.org/2000/svg"
   xmlns="http://www.w3.org/2000/svg"
   xmlns:sodipodi="http://sodipodi.sourceforge.net/DTD/sodipodi-0.dtd"
   xmlns:inkscape="http://www.inkscape.org/namespaces/inkscape"
   version="1.1"
   id="svg2"
   xml:space="preserve"
   width="23.333332"
   height="19.549467"
   viewBox="0 0 23.333332 19.549467"
   sodipodi:docname="icon-twitter.svg"
   inkscape:version="0.92.2 (5c3e80d, 2017-08-06)"><metadata
     id="metadata8"><rdf:RDF><cc:Work
         rdf:about=""><dc:format>image/svg+xml</dc:format><dc:type
           rdf:resource="http://purl.org/dc/dcmitype/StillImage" /><dc:title /></cc:Work></rdf:RDF></metadata><defs
     id="defs6"><clipPath
       clipPathUnits="userSpaceOnUse"
       id="clipPath18"><path
         d="M 0,14.662 H 17.5 V 0 H 0 Z"
         id="path16"
         inkscape:connector-curvature="0" /></clipPath></defs><sodipodi:namedview
     pagecolor="#ffffff"
     bordercolor="#666666"
     borderopacity="1"
     objecttolerance="10"
     gridtolerance="10"
     guidetolerance="10"
     inkscape:pageopacity="0"
     inkscape:pageshadow="2"
     inkscape:window-width="1920"
     inkscape:window-height="1017"
     id="namedview4"
     showgrid="false"
     inkscape:zoom="12.07194"
     inkscape:cx="11.666666"
     inkscape:cy="9.7747332"
     inkscape:window-x="-8"
     inkscape:window-y="-8"
     inkscape:window-maximized="1"
     inkscape:current-layer="g10" /><g
     id="g10"
     inkscape:groupmode="layer"
     inkscape:label="Vector Smart Object5"
     transform="matrix(1.3333333,0,0,-1.3333333,0,19.549467)"><g
       id="g12"
       style="fill:#ffffff;fill-opacity:1"
       transform="translate(0.12425509,-0.06212755)"><g
         id="g14"
         clip-path="url(#clipPath18)"
         style="fill:#ffffff;fill-opacity:1"><g
           id="g20"
           transform="translate(11.2832,14.5098)"
           style="fill:#ffffff;fill-opacity:1"><path
             d="m 0,0 c 1.736,0.484 3.074,-0.264 3.685,-1.15 0.694,0.225 1.372,0.47 2.072,0.69 C 5.753,-1.301 5.219,-1.938 4.874,-2.188 5.578,-2.353 6.217,-1.707 6.217,-1.707 6.042,-2.684 5.182,-3.453 4.605,-3.684 4.367,-10.276 1.334,-14.64 -5.776,-14.507 h -0.46 c -0.422,0 -4.29,0.449 -5.047,1.843 2.341,-0.192 4.011,0.412 4.835,1.149 -0.989,0.293 -2.761,0.465 -3.07,2.881 0.362,-0.104 0.583,-0.222 1.228,-0.116 -1.236,0.836 -2.608,1.537 -2.532,3.685 0.294,-0.319 1.1,-0.523 1.381,-0.461 -0.725,0.235 -2.03,3.281 -0.921,4.836 1.873,-1.812 3.848,-3.521 7.369,-3.685 0.216,2.24 1.171,3.74 2.993,4.375"
             style="fill:#ffffff;fill-opacity:1;fill-rule:nonzero;stroke:none"
             id="path22"
             inkscape:connector-curvature="0" /></g></g></g></g></svg>